<svg id="Gradient" height="512" viewBox="0 0 512 512" width="512" xmlns="http://www.w3.org/2000/svg" xmlns:xlink="http://www.w3.org/1999/xlink"><linearGradient id="linear-gradient" gradientUnits="userSpaceOnUse" x1="256" x2="256" y1="496" y2="16"><stop offset="0" stop-color="#12c2e9"/><stop offset=".5" stop-color="#c471ed"/><stop offset="1" stop-color="#f64f59"/></linearGradient><path d="m360 328a8 8 0 1 1 8 8 8 8 0 0 1 -8-8zm-328 80c0-60.782 19.007-116.059 53.519-155.649 23.854-27.364 53.849-46.069 87.009-54.772a96 96 0 1 1 86.978-.017c40.886 10.721 76.7 36.612 102.114 74.624 2.112-.119 4.238-.186 6.38-.186a112 112 0 1 1 -84.975 184.878 332.263 332.263 0 0 1 -67.025 7.122c-89.017 0-176.164-46.977-179.831-48.977a8 8 0 0 1 -4.169-7.023zm240-24a96 96 0 1 0 96-96 96.108 96.108 0 0 0 -96 96zm-56-192a80 80 0 1 0 -80-80 80.091 80.091 0 0 0 80 80zm-167.957 211.156c18.364 9.261 93.769 44.844 167.957 44.844a312.191 312.191 0 0 0 56.6-5.387 111.947 111.947 0 0 1 71.217-167.976c-31.117-42.497-77.107-66.637-127.817-66.637-45.522 0-87.578 19.485-118.421 54.865-31.062 35.635-48.565 85.299-49.536 140.291zm319.957 44.844a24.027 24.027 0 0 0 24-24 8 8 0 0 0 -16 0 8 8 0 0 1 -15.958.819l15.719-62.879a8 8 0 1 0 -15.522-3.88l-16 64a7.977 7.977 0 0 0 -.239 1.94 24.027 24.027 0 0 0 24 24z" fill="url(#linear-gradient)"/></svg>